<svg width="33" height="26" viewBox="0 0 33 26" fill="none" xmlns="http://www.w3.org/2000/svg">
<path d="M16.6091 2.3877H14.6309C14.5281 2.38801 14.4274 2.41451 14.3378 2.46531L2.79098 8.97987C2.60294 9.08556 2.48652 9.28433 2.4862 9.49982V10.205H0.597567C0.26755 10.205 0 10.4725 0 10.8029V16.0324C0 16.1908 0.0627854 16.3428 0.175108 16.4548C0.287112 16.5672 0.439185 16.6299 0.597574 16.6299H2.48621V17.431C2.48653 17.6465 2.60295 17.8453 2.79099 17.951L13.9315 24.2204C14.0208 24.2712 14.1218 24.2977 14.2246 24.298H16.6153C16.7736 24.298 16.9257 24.2352 17.0377 24.1232C17.15 24.0109 17.2128 23.8591 17.2128 23.7004V2.98545C17.2128 2.8258 17.1491 2.67278 17.0358 2.56078C16.9223 2.44846 16.7689 2.38598 16.6093 2.38788L16.6091 2.3877ZM1.19504 15.4352V11.4009H2.48606V15.4352H1.19504ZM16.0114 23.1033H14.3796L3.6817 17.0847V9.84701L14.8101 3.58325H16.0056L16.0114 23.1033Z" fill="#494949"/>
<path d="M23.6731 12.7867C23.5775 10.2585 22.0893 8.07113 19.9735 7.35398V7.35366C19.6599 7.24828 19.3201 7.41676 19.2144 7.73038C19.1087 8.04399 19.2775 8.38379 19.5911 8.48949C21.2406 9.04541 22.4 10.7905 22.478 12.8346L22.4777 12.8343C22.5433 13.8256 22.2959 14.8122 21.7706 15.6553C21.245 16.4984 20.4679 17.1549 19.5491 17.5322C19.2879 17.6433 19.1412 17.9228 19.1976 18.2011C19.2541 18.479 19.4983 18.6791 19.7823 18.6797C19.864 18.6781 19.9451 18.662 20.0214 18.6318C21.1588 18.1538 22.1208 17.3353 22.7745 16.2885C23.4283 15.2419 23.7422 14.0187 23.6731 12.7867L23.6731 12.7867Z" fill="#494949"/>
<path d="M23.0457 3.67793C22.9109 3.56498 22.7333 3.51702 22.5601 3.54668C22.3866 3.57665 22.2354 3.68108 22.1462 3.83284C22.0572 3.98429 22.0392 4.16759 22.0972 4.33323C22.1553 4.49919 22.2837 4.63139 22.4478 4.69418C25.1372 6.34366 26.739 9.47566 26.739 13.0021C26.7393 16.5282 25.1135 19.66 22.4001 21.3101C22.1736 21.4502 22.0676 21.7234 22.1395 21.9799C22.2114 22.2361 22.4446 22.4141 22.7109 22.4156C22.8207 22.415 22.9283 22.3841 23.0217 22.326C26.0698 20.4614 27.8867 16.9469 27.8867 13.0028C27.8867 9.05801 26.0937 5.54388 23.0456 3.67875L23.0457 3.67793Z" fill="#494949"/>
<path d="M25.7773 0.0499695C25.4735 -0.0822261 25.1204 0.0569096 24.9882 0.360746C24.8563 0.664262 24.9955 1.01763 25.299 1.14951C28.8254 2.68543 31.1024 7.34131 31.1024 13.0008C31.1024 18.6604 28.8255 23.3167 25.299 24.8522V24.8525C25.0371 24.9642 24.8901 25.2453 24.9481 25.5242C25.0062 25.8031 25.2532 26.0025 25.5381 26C25.6202 25.9987 25.7009 25.9823 25.7773 25.9523C29.7398 24.2189 32.2978 19.139 32.2978 13.0009C32.2978 6.86284 29.7397 1.78283 25.7773 0.0495135V0.0499695Z" fill="#494949"/>
</svg>
