<svg width="22" height="28" viewBox="0 0 22 28" fill="none" xmlns="http://www.w3.org/2000/svg">
<path d="M17.7168 27.1793C20.0919 27.1793 22 25.2712 22 22.8961V7.51489V7.47603C22 7.43716 22 7.3983 21.9611 7.35912V7.32025C21.9611 7.28139 21.9223 7.24253 21.8834 7.24253V7.20367L14.329 0.116587C14.2901 0.0777247 14.2513 0.0777257 14.2121 0.0388637H14.1732C14.1344 0.0388637 14.0955 0 14.0563 0H14.0174H4.28324C1.90811 0 0 1.90811 0 4.28324V22.8957C0 25.2708 1.90811 27.179 4.28324 27.179L17.7168 27.1793ZM14.4459 1.2853L20.6373 7.12623L14.4459 7.12591V1.2853ZM0.817699 22.8964V4.28392C0.817699 2.33691 2.37505 0.779556 4.32206 0.779556H13.6673V7.51596C13.6673 7.74945 13.8231 7.90523 14.0566 7.90523H21.2215V22.8967C21.2215 24.8437 19.6641 26.401 17.7171 26.401H4.32242C2.37542 26.401 0.817732 24.8437 0.817732 22.8967L0.817699 22.8964Z" fill="#494949"/>
<path d="M5.29552 15.3033H11.7204C11.9539 15.3033 12.1097 15.1475 12.1097 14.914C12.1097 14.6805 11.9539 14.5247 11.7204 14.5247L5.29552 14.5244C5.06203 14.5244 4.90625 14.6802 4.90625 14.9137C4.90593 15.1475 5.10056 15.3033 5.29552 15.3033Z" fill="#494949"/>
<path d="M5.29552 20.7935H16.7827C17.0162 20.7935 17.1719 20.6377 17.1719 20.4042C17.1719 20.1707 17.0162 20.015 16.7827 20.015L5.29552 20.0146C5.06203 20.0146 4.90625 20.1704 4.90625 20.4039C4.90593 20.6377 5.10056 20.7935 5.29552 20.7935Z" fill="#494949"/>
</svg>
