<svg width="37" height="23" viewBox="0 0 37 23" fill="none" xmlns="http://www.w3.org/2000/svg">
<path fill-rule="evenodd" clip-rule="evenodd" d="M18.4981 0.5C8.34856 0.5 0.0897848 8.76919 0.0125917 18.9808H0.0122451C-0.0341985 19.2516 0.0531431 19.5284 0.245847 19.7228C0.251739 19.729 0.257285 19.735 0.263177 19.7409H0.264217C0.455185 19.9287 0.723454 20.0142 0.98686 19.9709H15.2552C15.6312 21.4212 16.9486 22.5 18.4979 22.5C20.0496 22.5 21.3649 21.4202 21.7406 19.9709H36.0116C36.2785 20.0149 36.5502 19.9273 36.7419 19.7346C36.7478 19.729 36.754 19.7231 36.7599 19.7172H36.7602H36.7609C36.9488 19.5231 37.0334 19.2506 36.988 18.9836C36.9121 8.7703 28.6531 0.500117 18.498 0.500117L18.4981 0.5ZM19.3386 2.21318C23.3099 2.40931 26.9158 3.98952 29.6923 6.4854L28.4664 7.7208H28.4661C28.3038 7.87853 28.2117 8.09525 28.2099 8.32244C28.2082 8.54928 28.2969 8.7674 28.4563 8.92793C28.6158 9.08811 28.8324 9.17745 29.0577 9.17535C29.2833 9.17326 29.4982 9.08043 29.6549 8.91711L30.8884 7.67439C33.4569 10.4939 35.0884 14.1944 35.2873 18.2799H21.7412C21.5704 17.6151 21.2033 17.026 20.7032 16.5852L19.3307 6.28346C19.2742 5.86329 18.9175 5.55025 18.4968 5.5506C18.0757 5.5513 17.7197 5.86538 17.6646 6.28556L16.3212 16.5632C15.8086 17.005 15.4294 17.6021 15.2544 18.2795H1.71278C1.91173 14.1943 3.54279 10.4934 6.11137 7.67399L7.38648 8.95861L7.38613 8.95895C7.54279 9.12228 7.75803 9.21546 7.98331 9.2172C8.20895 9.21929 8.42557 9.12995 8.585 8.96977C8.74443 8.80924 8.83316 8.59112 8.83107 8.36394C8.82934 8.1371 8.73715 7.92039 8.57494 7.76264L7.30747 6.48535C10.0833 3.98938 13.6882 2.40994 17.6576 2.21348V3.82928C17.6544 4.05578 17.7414 4.27389 17.8995 4.43511C18.0572 4.59669 18.2728 4.68742 18.498 4.68742C18.723 4.68742 18.9386 4.59669 19.0963 4.43511C19.2543 4.27388 19.3413 4.05577 19.3382 3.82928V2.21348L19.3386 2.21318ZM18.5061 12.8196L19.0832 17.1519V17.1515C19.1147 17.3892 19.245 17.602 19.4419 17.7374C19.8803 18.0393 20.168 18.5447 20.168 19.1253C20.168 20.0697 19.4346 20.8081 18.4982 20.8081C17.5672 20.8081 16.8283 20.0679 16.8283 19.1253C16.8283 18.5387 17.1278 18.0257 17.5745 17.7266C17.7766 17.5916 17.9107 17.3749 17.9423 17.1327L18.5061 12.8196Z" fill="white"/>
</svg>
