<svg width="27" height="24" viewBox="0 0 27 24" fill="none" xmlns="http://www.w3.org/2000/svg">
<path d="M2.76353 24H12.349C13.8847 24 15.142 22.7714 15.142 21.2357V18.6928C15.142 18.3356 14.8563 18.05 14.4992 18.05C14.142 18.05 13.8564 18.3356 13.8564 18.6928V21.2357C13.8564 22.0643 13.1777 22.7143 12.3493 22.7143H2.76381C1.93522 22.7143 1.28517 22.0643 1.28517 21.2357V2.7643C1.28517 1.93571 1.93522 1.28566 2.76381 1.28566H12.3493C13.1779 1.28566 13.8564 1.93571 13.8564 2.7643V5.25709C13.8564 5.61424 14.142 5.8999 14.4992 5.8999C14.8563 5.8999 15.142 5.61424 15.142 5.25709V2.7643C15.142 1.2286 13.8847 0 12.349 0L2.7643 0.000301647C1.22859 0.000301647 0 1.22859 0 2.76429V21.2357C0 22.7714 1.22859 24 2.7643 24L2.76353 24Z" fill="#494949"/>
<path d="M20.5338 17.8932C20.6553 18.0003 20.8052 18.0504 20.9552 18.0504C21.1337 18.0504 21.3123 17.972 21.4408 17.829L26.0693 12.5004C26.2123 12.3788 26.3049 12.2003 26.3049 12.0003C26.3049 11.7861 26.1978 11.593 26.0334 11.4787L21.4125 6.85747C21.1624 6.60741 20.7555 6.60741 20.5054 6.85747C20.2554 7.10754 20.2554 7.51446 20.5054 7.76452L24.0983 11.3574H7.02C6.66285 11.3574 6.3772 11.6431 6.3772 12.0002C6.3772 12.3574 6.66285 12.643 7.02 12.643H24.2412L20.4769 16.9858C20.2414 17.2501 20.27 17.6573 20.5343 17.8932L20.5338 17.8932Z" fill="#494949"/>
</svg>
