<svg width="25" height="24" viewBox="0 0 25 24" fill="none" xmlns="http://www.w3.org/2000/svg">
<path d="M21.0264 0H3.97365C2.05825 0 0.5 1.55825 0.5 3.47365V20.5264C0.5 22.4417 2.05825 24 3.97365 24H21.0264C22.9418 24 24.5 22.4417 24.5 20.5264V3.47365C24.5 1.55825 22.9415 0 21.0264 0ZM23.2369 20.5265C23.2369 21.7453 22.2452 22.737 21.0264 22.737H3.97365C2.75483 22.737 1.76315 21.7453 1.76315 20.5265V17.9268L7.57132 11.4737L14.9174 18.1519C15.0374 18.2613 15.1898 18.3163 15.3421 18.3163C15.4855 18.3163 15.6292 18.2678 15.7463 18.1698L19.6053 14.9542L23.2369 17.9804L23.2369 20.5265ZM23.2369 16.336L20.0097 13.6465C19.7753 13.4512 19.4354 13.4512 19.201 13.6465L15.3602 16.847L7.95114 10.1117C7.82674 9.99871 7.66108 9.93994 7.49479 9.94807C7.32684 9.95662 7.1693 10.0314 7.05678 10.1565L1.76317 16.0382V3.47342C1.76317 2.2546 2.75485 1.26292 3.97367 1.26292H21.0264C22.2452 1.26292 23.2369 2.2546 23.2369 3.47342L23.2369 16.336Z" fill="white"/>
<path d="M17.4736 3.55273C15.5582 3.55273 13.9999 5.11099 13.9999 7.02638C13.9999 8.94178 15.5582 10.5 17.4736 10.5C19.389 10.5 20.9472 8.94178 20.9472 7.02638C20.9472 5.11099 19.3888 3.55273 17.4736 3.55273ZM17.4736 9.23661C16.2548 9.23661 15.2631 8.24494 15.2631 7.02612C15.2631 5.8073 16.2548 4.81562 17.4736 4.81562C18.6924 4.81562 19.6841 5.8073 19.6841 7.02612C19.6841 8.24494 18.6924 9.23661 17.4736 9.23661Z" fill="white"/>
</svg>
