<svg width="17" height="17" viewBox="0 0 17 17" fill="none" xmlns="http://www.w3.org/2000/svg">
<path d="M16.4537 1.59654L15.3985 0.54059C15.0514 0.194284 14.5812 0 14.0911 0C13.601 0 13.1309 0.194284 12.7838 0.54059L11.8815 1.44317L11.0199 2.30539L2.2173 11.11L2.21936 11.1121V11.1123C2.18515 11.1454 2.15786 11.1852 2.13935 11.2291L0.822092 14.5162L0.0254284 16.514C-0.0183125 16.6232 -0.00504154 16.7468 0.0607569 16.8442C0.126742 16.9417 0.23647 17 0.354046 17C0.398909 17 0.443398 16.9914 0.485083 16.9749L2.4822 16.178L5.7682 14.8603C5.81213 14.8416 5.85194 14.8145 5.88503 14.7801L5.88708 14.7821L14.6902 5.97656L16.0524 4.61396L16.0492 4.61115C16.6288 4.0012 16.9408 3.45295 16.9939 2.94094V2.94075C17.0384 2.43214 16.8378 1.93267 16.4539 1.59629L16.4537 1.59654ZM5.63739 14.0297L4.55322 12.9453L12.8553 4.64094L13.9395 5.72547L5.63739 14.0297ZM4.05244 12.4442L2.96827 11.3597L11.2704 3.05527L12.3545 4.14166L4.05244 12.4442ZM2.43609 15.4331L1.56631 14.563L2.59664 11.9906L5.00745 14.4022L2.43609 15.4331ZM14.4401 5.22442L11.7715 2.55532L12.3822 1.94556L15.0508 4.61505L14.4401 5.22442Z" fill="white"/>
</svg>
