<svg width="24" height="24" viewBox="0 0 24 24" fill="none" xmlns="http://www.w3.org/2000/svg">
<path d="M20.5264 0H3.47365C1.55825 0 0 1.55825 0 3.47365V20.5264C0 22.4417 1.55825 24 3.47365 24H20.5264C22.4418 24 24 22.4417 24 20.5264V3.47365C24 1.55825 22.4415 0 20.5264 0ZM22.7369 20.5265C22.7369 21.7453 21.7452 22.737 20.5264 22.737H3.47365C2.25483 22.737 1.26315 21.7453 1.26315 20.5265V17.9268L7.07132 11.4737L14.4174 18.1519C14.5374 18.2613 14.6898 18.3163 14.8421 18.3163C14.9855 18.3163 15.1292 18.2678 15.2463 18.1698L19.1053 14.9542L22.7369 17.9804L22.7369 20.5265ZM22.7369 16.336L19.5097 13.6465C19.2753 13.4512 18.9354 13.4512 18.701 13.6465L14.8602 16.847L7.45114 10.1117C7.32674 9.99871 7.16108 9.93994 6.99479 9.94807C6.82684 9.95662 6.6693 10.0314 6.55678 10.1565L1.26317 16.0382V3.47342C1.26317 2.2546 2.25485 1.26292 3.47367 1.26292H20.5264C21.7452 1.26292 22.7369 2.2546 22.7369 3.47342L22.7369 16.336Z" fill="#494949"/>
<path d="M16.9736 3.55273C15.0582 3.55273 13.4999 5.11099 13.4999 7.02638C13.4999 8.94178 15.0582 10.5 16.9736 10.5C18.889 10.5 20.4472 8.94178 20.4472 7.02638C20.4472 5.11099 18.8888 3.55273 16.9736 3.55273ZM16.9736 9.23661C15.7548 9.23661 14.7631 8.24494 14.7631 7.02612C14.7631 5.8073 15.7548 4.81562 16.9736 4.81562C18.1924 4.81562 19.1841 5.8073 19.1841 7.02612C19.1841 8.24494 18.1924 9.23661 16.9736 9.23661Z" fill="#494949"/>
</svg>
